<svg width="18" height="20" viewBox="0 0 18 20" fill="none" xmlns="http://www.w3.org/2000/svg">
<path d="M9.04332 1.7394C11.3756 1.7394 11.6518 1.74906 12.5731 1.79548C13.127 1.80297 13.6757 1.91538 14.1953 2.12783C14.5721 2.28841 14.9143 2.5344 15.1998 2.84997C15.4854 3.16554 15.708 3.54369 15.8533 3.96008C16.0455 4.53427 16.1472 5.14063 16.154 5.75281C16.1956 6.77098 16.2048 7.07621 16.2048 9.65359C16.2048 12.231 16.196 12.5362 16.154 13.5544C16.1472 14.1666 16.0455 14.7729 15.8533 15.3471C15.708 15.7635 15.4854 16.1416 15.1998 16.4572C14.9143 16.7728 14.5721 17.0188 14.1953 17.1794C13.6757 17.3918 13.127 17.5042 12.5731 17.5117C11.6522 17.5577 11.376 17.5678 9.04332 17.5678C6.71067 17.5678 6.43448 17.5581 5.51356 17.5117C4.95961 17.5042 4.41092 17.3918 3.89135 17.1794C3.51457 17.0188 3.17238 16.7728 2.88683 16.4572C2.60128 16.1416 2.37868 15.7635 2.23337 15.3471C2.04114 14.7729 1.93942 14.1666 1.93264 13.5544C1.89104 12.5362 1.88189 12.231 1.88189 9.65359C1.88189 7.07621 1.89063 6.77098 1.93264 5.75281C1.93942 5.14063 2.04114 4.53427 2.23337 3.96008C2.37868 3.54369 2.60128 3.16554 2.88683 2.84997C3.17238 2.5344 3.51457 2.28841 3.89135 2.12783C4.41092 1.91538 4.95961 1.80297 5.51356 1.79548C6.43489 1.74952 6.71108 1.7394 9.04332 1.7394ZM9.04332 0C6.6724 0 6.37375 0.0110321 5.44202 0.0579188C4.71704 0.0738547 3.99975 0.225553 3.32067 0.50656C2.73813 0.749114 2.21049 1.12922 1.77458 1.62035C1.32976 2.10226 0.985515 2.68568 0.765896 3.32987C0.511617 4.08033 0.374348 4.87302 0.359928 5.6742C0.318332 6.70295 0.30835 7.033 0.30835 9.65313C0.30835 12.2733 0.318332 12.6033 0.360759 13.633C0.37518 14.4342 0.512449 15.2269 0.766728 15.9773C0.986104 16.6214 1.33006 17.2048 1.77458 17.6868C2.21073 18.1781 2.73866 18.5582 3.3215 18.8006C4.00058 19.0816 4.71787 19.2333 5.44285 19.2493C6.37458 19.2952 6.67199 19.3072 9.04416 19.3072C11.4163 19.3072 11.7137 19.2962 12.6455 19.2493C13.3704 19.2333 14.0877 19.0816 14.7668 18.8006C15.3469 18.5521 15.8736 18.1726 16.3134 17.6863C16.7532 17.2 17.0963 16.6176 17.3208 15.9764C17.575 15.2259 17.7123 14.4333 17.7267 13.6321C17.7683 12.6033 17.7783 12.2733 17.7783 9.65313C17.7783 7.033 17.7683 6.70295 17.7259 5.67329C17.7115 4.8721 17.5742 4.07941 17.3199 3.32895C17.1005 2.68485 16.7566 2.10143 16.3121 1.61943C15.8759 1.12819 15.348 0.748076 14.7651 0.50564C14.0861 0.224633 13.3688 0.0729354 12.6438 0.0569995C11.7129 0.0110322 11.4142 0 9.04332 0Z" fill="white"/>
</svg>
