<svg width="16" height="14" viewBox="0 0 16 14" fill="none" xmlns="http://www.w3.org/2000/svg">
<path d="M15.3088 2.35396C14.7685 2.61934 14.1982 2.7852 13.5979 2.88472C14.1982 2.48665 14.6785 1.85637 14.8886 1.09341C14.3183 1.45831 13.6879 1.72369 12.9975 1.88955C12.4572 1.25927 11.6768 0.861206 10.8363 0.861206C9.21537 0.861206 7.89462 2.32079 7.89462 4.11209C7.89462 4.37747 7.92463 4.60967 7.98467 4.84188C5.55328 4.70919 3.36204 3.41547 1.8912 1.42514C1.65106 1.92272 1.50098 2.45348 1.50098 3.05058C1.50098 4.17843 2.01127 5.1736 2.82173 5.7707C2.34145 5.73753 1.8912 5.60484 1.47096 5.37264V5.40581C1.47096 6.99808 2.49154 8.32497 3.84231 8.62352C3.60217 8.68987 3.33202 8.72304 3.06186 8.72304C2.88176 8.72304 2.67164 8.68987 2.49154 8.65669C2.88176 9.95041 3.96238 10.9124 5.25311 10.9124C4.23253 11.7749 2.97181 12.3056 1.59103 12.3056C1.35089 12.3056 1.11075 12.3056 0.900635 12.2725C2.22139 13.2013 3.75226 13.7321 5.43322 13.7321C10.8663 13.7321 13.838 8.75621 13.838 4.44381C13.838 4.31112 13.838 4.14526 13.838 4.01257C14.4083 3.58133 14.9186 3.01741 15.3088 2.35396Z" fill="white"/>
</svg>
