<svg width="10" height="11" viewBox="0 0 10 11" fill="none" xmlns="http://www.w3.org/2000/svg">
<path d="M5.04177 0.696289C4.1546 0.696289 3.28735 0.987019 2.5497 1.53171C1.81204 2.07641 1.23711 2.8506 0.897602 3.7564C0.558096 4.66219 0.469266 5.6589 0.642344 6.62049C0.815423 7.58207 1.24264 8.46535 1.86996 9.15861C2.49729 9.85188 3.29655 10.324 4.16667 10.5153C5.0368 10.7065 5.9387 10.6084 6.75834 10.2332C7.57798 9.85799 8.27854 9.22262 8.77142 8.40743C9.26431 7.59224 9.52739 6.63383 9.52739 5.6534C9.52739 4.3387 9.0548 3.07783 8.21358 2.14819C7.37236 1.21856 6.23143 0.696289 5.04177 0.696289ZM5.04177 8.87112C4.4659 8.87112 3.90296 8.6824 3.42414 8.32883C2.94532 7.97527 2.57213 7.47273 2.35175 6.88477C2.13137 6.29681 2.07371 5.64983 2.18606 5.02566C2.29841 4.40148 2.57572 3.82814 2.98292 3.37814C3.39012 2.92813 3.90893 2.62168 4.47373 2.49752C5.03854 2.37336 5.62398 2.43708 6.15601 2.68063C6.68805 2.92417 7.14279 3.33659 7.46273 3.86574C7.78266 4.39489 7.95343 5.017 7.95343 5.6534C7.95343 6.50679 7.64667 7.32523 7.10062 7.92867C6.55458 8.53211 5.81399 8.87112 5.04177 8.87112Z" fill="white"/>
</svg>
